<?xml version="1.0" encoding="UTF-8"?>
<svg id="_Слой_1" data-name="Слой_1" xmlns="http://www.w3.org/2000/svg" version="1.1" viewBox="0 0 48 48">
  <!-- Generator: Adobe Illustrator 29.5.1, SVG Export Plug-In . SVG Version: 2.1.0 Build 141)  -->
  <defs>
    <style>
      .st0 {
        fill: #26547c;
        stroke: #26547c;
      }

      .st0, .st1 {
        stroke-miterlimit: 10;
        stroke-width: .8px;
      }

      .st1 {
        fill: #303033;
        stroke: #303033;
      }
    </style>
  </defs>
  <rect class="st0" x="18" y="13.6" width="4" height="10"/>
  <rect class="st0" x="26" y="13.6" width="4" height="10"/>
  <polygon class="st0" points="38 19.6 34 23.6 34 13.6 38 13.6 38 19.6"/>
  <path class="st1" d="M43,7.6H7c-1.3,0-2.4-.8-2.8-2-.2-.6-.6-1.3-1.4-1.1-.4,0-.8.5-.7,1,.4,2.3,2.5,4.1,4.9,4.1h3v14h2v-14h31c.6,0,1,.4,1,1v7c0,.8-.5,2.2-1.1,2.8l-6.3,7c-.5.6-1.8,1.2-2.6,1.2H13c-1.7,0-3,1.3-3,3v2.1c-2.3.5-4,2.5-4,4.9s2.2,5,5,5,4.4-1.7,4.9-4h8.2c.5,2.3,2.5,4,4.9,4s5-2.2,5-5-2.2-5-5-5-4.4,1.7-4.9,4h-8.2c-.4-2-1.9-3.5-3.9-3.9v-2.1c0-.6.4-1,1-1h21c1.4,0,3.1-.8,4.1-1.8l6.3-7c.9-1,1.6-2.8,1.6-4.2v-7c0-1.7-1.3-3-3-3ZM29,35.6c1.7,0,3,1.3,3,3s-1.3,3-3,3-3-1.3-3-3,1.3-3,3-3ZM14,38.6c0,1.7-1.3,3-3,3s-3-1.3-3-3,1.3-3,3-3,3,1.3,3,3Z"/>
  <path class="st1" d="M29,40.1c.8,0,1.5-.7,1.5-1.5s-.7-1.5-1.5-1.5-1.5.7-1.5,1.5.7,1.5,1.5,1.5Z"/>
  <path class="st1" d="M9.5,38.6c0,.8.7,1.5,1.5,1.5s1.5-.7,1.5-1.5-.7-1.5-1.5-1.5-1.5.7-1.5,1.5Z"/>
</svg>