<?xml version="1.0" encoding="UTF-8"?>
<svg id="Livello_2" data-name="Livello 2" xmlns="http://www.w3.org/2000/svg" viewBox="0 0 33.07 66">
  <defs>
    <style>
      .cls-1 {
        fill: #26547c;
      }
    </style>
  </defs>
  <g id="Livello_4" data-name="Livello 4">
    <path class="cls-1" d="M33.07,32.99c-.8,1.27-3.53,5.26-8.58,6.53-1.65.42-3.14.44-4.32.34,1.19,2.13.97,3.07.67,3.52-1.15,1.73-6.38.64-9.93-1.38-2.6-1.48-4.22-3.41-5.1-4.64-.4.52-.86.99-1.39,1.39,1.23.88,3.14,2.5,4.6,5.08,2.02,3.55,3.11,8.78,1.37,9.93-.45.3-1.39.52-3.52-.67.1,1.18.08,2.67-.34,4.32-1.28,5.07-5.29,7.81-6.55,8.59V0s0,0,.01,0c1.26.78,5.27,3.52,6.55,8.59.42,1.65.44,3.14.34,4.32,2.13-1.19,3.07-.97,3.52-.67,1.73,1.15.64,6.38-1.38,9.93-1.45,2.56-3.35,4.17-4.58,5.06.52.4.98.87,1.37,1.39.88-1.23,2.5-3.15,5.09-4.62,3.55-2.02,8.78-3.11,9.93-1.38.3.45.52,1.39-.67,3.52,1.18-.1,2.67-.08,4.32.34,5.02,1.26,7.75,5.21,8.57,6.51Z"/>
  </g>
</svg>