<?xml version="1.0" encoding="UTF-8"?>
<svg id="Livello_2" xmlns="http://www.w3.org/2000/svg" viewBox="0 0 14.34 10.81">
  <defs>
    <style>
      .cls-1 {
        fill: #26547c;
      }
    </style>
  </defs>
  <path class="cls-1" d="M14.34,5.4c-.4.61-1.77,2.53-4.3,3.14-.83.2-1.58.21-2.17.16.6,1.03.49,1.48.34,1.7-.58.83-3.2.3-4.98-.67-1.3-.71-2.12-1.63-2.56-2.22C.49,7.25-.02,6.47,0,5.35c.02-1.05.48-1.78.67-2.05.44-.57,1.26-1.51,2.57-2.22C5.02.11,7.64-.42,8.22.41c.15.22.25.67-.34,1.7.59-.05,1.34-.04,2.17.16,2.51.61,3.88,2.51,4.29,3.13Z"/>
</svg>