<?xml version="1.0" encoding="UTF-8"?>
<svg id="Livello_2" data-name="Livello 2" xmlns="http://www.w3.org/2000/svg" viewBox="0 0 40 40">
  <defs>
    <style>
      .cls-1 {
        fill: #26547c;
      }

      .cls-2 {
        fill: #fff;
      }
    </style>
  </defs>
  <g id="Livello_1-2" data-name="Livello 1">
    <g>
      <path class="cls-2" d="M39,19.99c-.46.73-2.02,3.03-4.93,3.76-.95.24-1.81.26-2.48.19.68,1.23.56,1.77.39,2.02-.66,1-3.67.37-5.71-.79-1.49-.85-2.43-1.96-2.93-2.67-.23.3-.49.57-.8.8.71.51,1.8,1.44,2.65,2.93,1.16,2.04,1.79,5.05.79,5.72-.27.17-.8.29-2.02-.39.05.67.04,1.54-.19,2.48-.73,2.93-3.04,4.5-3.76,4.95-.72-.45-3.03-2.02-3.76-4.95-.24-.95-.26-1.81-.19-2.48-1.23.68-1.77.56-2.02.39-1-.66-.37-3.68.79-5.72.85-1.48,1.95-2.42,2.66-2.93-.29-.23-.55-.49-.77-.78-.5.71-1.44,1.83-2.94,2.68-2.03,1.16-5.05,1.79-5.7.8-.18-.27-.3-.8.38-2.03-.67.06-1.53.04-2.48-.19-2.93-.73-4.5-3.07-4.94-3.77.43-.7,2.01-3.05,4.95-3.79.95-.24,1.81-.26,2.48-.19-.68-1.23-.56-1.77-.38-2.03.65-1,3.67-.37,5.7.8,1.48.84,2.41,1.94,2.93,2.65.22-.28.48-.55.76-.77-.71-.51-1.79-1.43-2.63-2.91-1.16-2.04-1.79-5.05-.79-5.72.26-.17.8-.29,2.02.39-.06-.67-.04-1.54.19-2.48.73-2.93,3.04-4.5,3.76-4.95.72.45,3.03,2.02,3.76,4.95.24.95.25,1.81.19,2.48,1.22-.68,1.76-.56,2.02-.39,1,.66.37,3.68-.8,5.72-.83,1.48-1.92,2.39-2.62,2.91.29.23.56.5.79.8.5-.71,1.44-1.81,2.93-2.66,2.03-1.16,5.05-1.79,5.7-.79.18.26.3.8-.38,2.02.67-.06,1.53-.04,2.48.19,2.88.73,4.45,3,4.92,3.75Z"/>
    </g>
  </g>
</svg>