<?xml version="1.0" encoding="UTF-8"?>
<svg id="Livello_2" data-name="Livello 2" xmlns="http://www.w3.org/2000/svg" viewBox="0 0 101 31.73">
  <defs>
    <style>
      .cls-1 {
        fill: #fff;
      }
    </style>
  </defs>
  <g id="Livello_1-2" data-name="Livello 1">
    <polygon class="cls-1" points="64.85 3.48 64.85 28.09 57.7 28.09 57.7 16.53 53.51 22.29 48.89 22.29 44.7 16.5 44.7 28.09 37.54 28.09 37.54 3.48 42.78 3.48 51.21 15.3 59.61 3.48 64.85 3.48"/>
    <path class="cls-1" d="M67.57,28.09V3.48h7.22v24.62h-7.22Z"/>
    <path class="cls-1" d="M91.1,28.51c-1.97,0-3.81-.32-5.51-.95-1.7-.63-3.18-1.53-4.46-2.68-1.28-1.15-2.27-2.51-2.98-4.06-.71-1.55-1.07-3.24-1.07-5.06s.36-3.54,1.07-5.08c.71-1.54,1.7-2.88,2.96-4.01,1.26-1.13,2.74-2.01,4.42-2.64,1.69-.63,3.52-.95,5.49-.95s3.83.3,5.49.9c1.66.6,3.11,1.43,4.33,2.49l-4.81,4.63c-.58-.6-1.28-1.07-2.11-1.42-.83-.34-1.8-.52-2.91-.52-.96,0-1.85.15-2.66.45-.81.3-1.5.74-2.08,1.31-.58.58-1.03,1.27-1.36,2.09-.33.82-.49,1.73-.49,2.75s.16,1.97.49,2.78c.33.82.78,1.52,1.36,2.09.58.58,1.27,1.02,2.08,1.33.81.31,1.69.47,2.66.47,1.08,0,2.05-.16,2.91-.48.86-.32,1.6-.8,2.22-1.42l4.84,4.63c-1.28,1.06-2.71,1.88-4.3,2.47-1.59.59-3.46.88-5.6.88h0Z"/>
    <path class="cls-1" d="M33.15,15.86c-.4.61-1.77,2.53-4.3,3.14-.83.2-1.58.21-2.17.16.6,1.03.49,1.48.34,1.7-.58.83-3.2.3-4.98-.67-1.3-.71-2.12-1.63-2.56-2.22-.19.25-.43.47-.69.66.62.43,1.57,1.21,2.31,2.44,1.01,1.71,1.56,4.22.69,4.78-.23.14-.7.24-1.77-.33.05.57.04,1.29-.17,2.08-.64,2.44-2.65,3.75-3.28,4.13-.63-.38-2.64-1.69-3.29-4.13-.2-.79-.22-1.51-.17-2.08-1.06.57-1.53.47-1.76.33-.87-.56-.32-3.07.69-4.78.73-1.24,1.7-2.02,2.31-2.44-.25-.19-.47-.4-.67-.64-.44.58-1.25,1.52-2.56,2.23-1.78.97-4.4,1.49-4.98.66-.15-.22-.26-.67.34-1.69-.59.05-1.34.04-2.17-.17-2.55-.61-3.92-2.56-4.31-3.15.38-.58,1.75-2.54,4.32-3.17.83-.2,1.58-.21,2.17-.16-.6-1.02-.49-1.47-.34-1.69.58-.84,3.2-.31,4.98.66,1.29.7,2.1,1.63,2.55,2.22.19-.24.41-.46.66-.64-.62-.43-1.57-1.21-2.29-2.43-1.02-1.71-1.56-4.22-.69-4.78.22-.14.69-.24,1.76.33-.05-.57-.04-1.29.17-2.08.64-2.44,2.66-3.75,3.29-4.13.62.38,2.64,1.69,3.28,4.13.21.79.22,1.51.17,2.08,1.07-.57,1.54-.47,1.76-.33.87.56.33,3.07-.69,4.78-.72,1.22-1.67,2-2.29,2.43.26.19.49.41.69.67.44-.6,1.25-1.52,2.55-2.22,1.78-.97,4.4-1.5,4.98-.67.15.22.25.67-.34,1.7.59-.05,1.34-.04,2.17.16,2.51.61,3.88,2.51,4.29,3.13Z"/>
  </g>
</svg>